<svg xmlns="http://www.w3.org/2000/svg" viewBox="0 0 90.68 15.82"><g id="Layer_2" data-name="Layer 2"><g id="Layer_1-2" data-name="Layer 1"><path d="M0,7.17l1.1-1.1A2.64,2.64,0,0,0,5.61,4.2V1.55H4.29V0H7.17V4.2A4.2,4.2,0,0,1,0,7.17Z"/><path d="M9.69,8.4H8.13V3.58a3.59,3.59,0,0,1,7.17,0V8.4H13.74V6.84H9.69Zm0-4.82V5.29h4.05V3.58a2,2,0,0,0-4.05,0Z"/><path d="M17.86,8.4H16.3V0h1.64l1.95,5.91L21.83,0h1.64V8.4H21.92V4.72L20.7,8.4H19.07L17.86,4.72Z"/><path d="M24.79,8.4V0H31V1.55H26.34V3.42H31V5H26.34V6.84H31V8.4H24.79Z"/><path d="M37.24,5.91A.93.93,0,0,0,36.31,5h-2.2a2.49,2.49,0,0,1,0-5h2.2a2.48,2.48,0,0,1,2.48,2.49H37.24a.94.94,0,0,0-.93-.94h-2.2a.94.94,0,0,0,0,1.87h2.2a2.49,2.49,0,0,1,0,5h-2.2a2.49,2.49,0,0,1-2.48-2.49h1.55a.93.93,0,0,0,.93.93h2.2A.93.93,0,0,0,37.24,5.91Z"/><path d="M43,6.53V0h3.9a3.27,3.27,0,0,1,1.76,6L50.18,8.4H48.34L47.15,6.52H44.56V8.4H43ZM44.56,5h2.35a1.66,1.66,0,0,0,.93-.27,1.71,1.71,0,0,0-.93-3.15H44.56Z"/><path d="M50.74,4.2a4.2,4.2,0,1,1,4.2,4.2A4.2,4.2,0,0,1,50.74,4.2Zm1.55,0a2.65,2.65,0,1,0,2.65-2.65A2.65,2.65,0,0,0,52.29,4.2Z"/><path d="M60.92,7.17a4.2,4.2,0,0,1,5.94-5.94l-1.1,1.1a2.64,2.64,0,1,0-.46,4.1v-3h1.56v5H65.3V8.15A4.2,4.2,0,0,1,60.92,7.17Z"/><path d="M68,8.4V0h6.16V1.55H69.58V3.42h4.61V5H69.58V6.84h4.61V8.4H68Z"/><path d="M75.58,6.53V0h3.9a3.26,3.26,0,0,1,2,5.87,1.35,1.35,0,0,0,1.3,1V8.4A2.9,2.9,0,0,1,80,6.48l-.3,0H77.13V8.4H75.58ZM77.13,5h2.35a1.68,1.68,0,0,0,.92-.26,1.71,1.71,0,0,0-.92-3.15H77.13Z"/><path d="M88.92,5.91A.93.93,0,0,0,88,5H85.8a2.49,2.49,0,1,1,0-5H88a2.49,2.49,0,0,1,2.49,2.49H88.92A.93.93,0,0,0,88,1.56H85.8a.93.93,0,1,0,0,1.86H88a2.49,2.49,0,1,1,0,5H85.8a2.49,2.49,0,0,1-2.49-2.49h1.55a.93.93,0,0,0,.94.93H88A.93.93,0,0,0,88.92,5.91Z"/><rect y="11.61" width="40.48" height="4.21"/><polyline points="42.21 14.54 90.68 14.54 90.68 15.76 42.21 15.76"/><line x1="90.48" y1="11.61" x2="90.48" y2="12.82"/><polyline points="42.21 11.54 90.68 11.54 90.68 12.76 42.21 12.76"/></g></g></svg>